# xmcd
#
# Track frame offsets: 
#        150
#        19253
#        34516
#        50460
#        79447
#        99037
#        114609
#        136598
#        156210
#        182042
#        205938
#
# Disc length: 3054 seconds
#
# Revision: 0
# Processed by: cddbd v1.5.2PL0 Copyright (c) Steve Scherf et al.
# Submitted via: ExactAudioCopy v0.95a5
#
DISCID=860bec0b
DTITLE=The Back Alley Saints - All The Fortune... All The Fame
DYEAR=2008
DGENRE=Blues
TTITLE0=All Day Long
TTITLE1=Deep End
TTITLE2=Hurt Me
TTITLE3=Long Time
TTITLE4=Somebody Better Love Somebody
TTITLE5=Love Me (Or Leave Me Alone)
TTITLE6=Man In Need
TTITLE7=Rescue Me
TTITLE8=Someday... (Little Lady)
TTITLE9=Shake Yourself
TTITLE10=None Of Them Could Ever Compare To You
EXTD=
EXTT0=
EXTT1=
EXTT2=
EXTT3=
EXTT4=
EXTT5=
EXTT6=
EXTT7=
EXTT8=
EXTT9=
EXTT10=
PLAYORDER=
